<?xml version="1.0" encoding="UTF-8"?>
<svg version="1.1" xmlns="http://www.w3.org/2000/svg" width="500" height="500">
<path d="M0 0 C165 0 330 0 500 0 C500 165 500 330 500 500 C335 500 170 500 0 500 C0 335 0 170 0 0 Z " fill="#000000" transform="translate(0,0)"/>
<path d="M0 0 C20.3259375 -0.12375 20.3259375 -0.12375 41.0625 -0.25 C45.31133057 -0.28641602 49.56016113 -0.32283203 53.93774414 -0.36035156 C59.20202637 -0.37841797 59.20202637 -0.37841797 61.68113708 -0.3817749 C63.38052077 -0.3878417 65.07988932 -0.40174931 66.77915955 -0.42230225 C82.65594209 -0.60441809 98.75939023 0.47109284 111.0234375 11.8828125 C120.17693309 21.73151028 121.50523944 31.57498261 121.265625 44.54296875 C120.8159646 55.11219245 115.61381808 61.94785702 108 69 C101.50561798 74 101.50561798 74 97 74 C97.49290527 74.93046143 97.98581055 75.86092285 98.49365234 76.81958008 C102.8503914 85.04434455 107.205456 93.26999263 111.55825806 101.49684143 C113.84402297 105.81672289 116.13204298 110.13539746 118.421875 114.453125 C119.32304657 116.15618127 120.22410214 117.85929893 121.125 119.5625 C121.73480713 120.70972534 121.73480713 120.70972534 122.35693359 121.88012695 C125 126.88582674 125 126.88582674 125 128 C109.82 128 94.64 128 79 128 C76.36 122.72 73.72 117.44 71 112 C69.98292969 110.00066406 68.96585937 108.00132812 67.91796875 105.94140625 C67.23250977 104.59079102 67.23250977 104.59079102 66.53320312 103.21289062 C65.62102384 101.41633432 64.70420608 99.622127 63.78320312 97.83007812 C60.99656776 92.31660643 58.80937702 86.90902862 57 81 C51.72 81 46.44 81 41 81 C41 96.51 41 112.02 41 128 C27.47 128 13.94 128 0 128 C0 85.76 0 43.52 0 0 Z " fill="#40E5E5" transform="translate(78,163)"/>
<path d="M0 0 C13.86 0 27.72 0 42 0 C42.33 17.16 42.66 34.32 43 52 C49.85096406 44.45176213 49.85096406 44.45176213 56.375 36.6875 C59.70017979 32.58026574 63.07659105 28.52513137 66.5 24.5 C70.67128347 19.59247955 74.77682263 14.6371125 78.83203125 9.6328125 C79.54746094 8.76398438 80.26289063 7.89515625 81 7 C81.3693013 6.41777176 81.7386026 5.83554352 82.11909485 5.235672 C84.22619681 2.21609693 85.81395154 0.29565993 89.46876526 -0.61541748 C92.50984398 -0.80995697 95.47784455 -0.78713381 98.5234375 -0.68359375 C100.17540634 -0.6687368 100.17540634 -0.6687368 101.86074829 -0.65357971 C105.36687239 -0.61449767 108.86982761 -0.52667974 112.375 -0.4375 C114.7564651 -0.40237849 117.13797943 -0.37044097 119.51953125 -0.34179688 C125.34742929 -0.26475623 131.17348826 -0.14772773 137 0 C135.38182825 3.40829937 133.52234036 5.79530758 130.9375 8.5625 C127.72708915 12.05918953 124.65543761 15.60799393 121.6875 19.3125 C117.8030382 24.1189283 113.68419009 28.63558572 109.46191406 33.14135742 C105.37763214 37.52533698 101.57459241 42.07025087 97.83984375 46.7578125 C96.3062094 48.62682761 94.74764949 50.33401638 93 52 C94.377483 55.72151038 96.07846051 58.96167384 98.16796875 62.33203125 C98.80637695 63.36577881 99.44478516 64.39952637 100.10253906 65.46459961 C100.79057617 66.56940674 101.47861328 67.67421387 102.1875 68.8125 C102.90751253 69.97451361 103.62723474 71.13670716 104.34667969 72.29907227 C106.55873128 75.86961907 108.77894036 79.43505237 111 83 C111.66918457 84.07540039 112.33836914 85.15080078 113.02783203 86.25878906 C118.51863885 95.07881969 124.01093822 103.89761405 129.60546875 112.65234375 C130.1684668 113.53543213 130.73146484 114.41852051 131.31152344 115.32836914 C132.36931563 116.98510043 133.43096549 118.63937711 134.49707031 120.29077148 C135.19268066 121.38047241 135.19268066 121.38047241 135.90234375 122.4921875 C136.30960693 123.12495605 136.71687012 123.75772461 137.13647461 124.40966797 C138 126 138 126 138 128 C131.34959951 128.43349551 124.70285575 128.72960513 118.04150391 128.93383789 C115.78035493 129.01899049 113.52013329 129.13477275 111.26220703 129.2824707 C93.11270013 130.43933164 93.11270013 130.43933164 88.07580566 126.49206543 C84.74530617 122.53220043 82.78371718 118.01908316 80.91131592 113.23373413 C79.57243153 109.95198332 77.8291627 107.0314012 76.03125 103.9765625 C74.85220794 101.86046517 73.67507762 99.74330136 72.5 97.625 C71.30318872 95.47073969 70.10532302 93.31706473 68.90625 91.1640625 C68.39384766 90.24061035 67.88144531 89.3171582 67.35351562 88.36572266 C66.30610219 86.53501628 65.1699521 84.75492815 64 83 C60.39291777 84.58339056 57.64232061 86.79806616 54.625 89.3125 C53.65949219 90.11171875 52.69398438 90.9109375 51.69921875 91.734375 C50.13260681 93.04933148 48.57030203 94.3695233 47.01953125 95.703125 C43.18265086 99 43.18265086 99 41 99 C41 108.57 41 118.14 41 128 C27.47 128 13.94 128 0 128 C0 85.76 0 43.52 0 0 Z " fill="#FBFBFB" transform="translate(222,163)"/>
<path d="M0 0 C7.38524912 6.13879357 12.61589053 12.5911945 14.625 22.1875 C14.625 25.1575 14.625 28.1275 14.625 31.1875 C1.755 31.1875 -11.115 31.1875 -24.375 31.1875 C-25.365 27.2275 -25.365 27.2275 -26.375 23.1875 C-31.8655563 18.63150647 -36.52257359 17.85384348 -43.4375 17.890625 C-47.90969885 18.34260254 -53.10128527 19.91378527 -56.375 23.1875 C-56.5363058 26.25231021 -56.35650241 28.24299278 -55.375 31.1875 C-53.45603485 32.11734651 -53.45603485 32.11734651 -51.0625 32.6875 C-50.14855469 32.93628906 -49.23460937 33.18507812 -48.29296875 33.44140625 C-47.33003906 33.68761719 -46.36710937 33.93382812 -45.375 34.1875 C-44.48425781 34.42339844 -43.59351563 34.65929687 -42.67578125 34.90234375 C-38.18289302 36.06159664 -33.68474339 37.13554623 -29.13671875 38.0546875 C-12.61875703 41.43315889 3.54024433 45.91377629 14.21484375 59.84375 C17.60688476 65.48149129 17.93905555 70.66762061 17.875 77.0625 C17.88660156 78.20912109 17.88660156 78.20912109 17.8984375 79.37890625 C17.87469633 86.37067964 16.81548479 92.73191952 13.25 98.875 C12.85039062 99.58011719 12.45078125 100.28523438 12.0390625 101.01171875 C4.75883289 112.21361901 -7.74059181 118.03935102 -20.54638672 120.77514648 C-26.77708099 121.68345329 -33.09052178 121.58064524 -39.375 121.5625 C-40.11110504 121.56162384 -40.84721008 121.56074768 -41.60562134 121.55984497 C-59.27055107 121.49033304 -77.9009421 119.36946475 -91.5 106.75 C-99.10438643 98.13296914 -101.375 87.399077 -101.375 76.1875 C-88.505 76.1875 -75.635 76.1875 -62.375 76.1875 C-61.385 79.4875 -60.395 82.7875 -59.375 86.1875 C-54.91721136 90.64528864 -50.80149175 91.43013662 -44.56274414 91.51586914 C-43.54168579 91.50801392 -43.54168579 91.50801392 -42.5 91.5 C-41.79544678 91.49798584 -41.09089355 91.49597168 -40.36499023 91.49389648 C-35.21541666 91.39444248 -29.25794871 91.07044871 -25.375 87.1875 C-24.87468794 83.77178147 -24.87468794 83.77178147 -25.375 80.1875 C-33.85786992 73.86390606 -46.25874133 72.44106068 -56.375 70.1875 C-72.11070493 66.57602674 -85.85121444 62.15242908 -95.375 48.1875 C-100.43380065 38.75837454 -100.8884513 28.09772032 -98.25 17.8125 C-94.64246894 7.52935073 -86.81001446 0.80794387 -77.375 -4.0625 C-73.08880255 -6.1020289 -69.02989152 -7.79688731 -64.375 -8.8125 C-63.6840625 -8.99554688 -62.993125 -9.17859375 -62.28125 -9.3671875 C-42.5708794 -13.92053261 -16.84034543 -11.91778292 0 0 Z " fill="#FCFCFC" transform="translate(472.375,171.8125)"/>
<path d="M0 0 C13.2 0 26.4 0 40 0 C40 12.21 40 24.42 40 37 C26.8 37 13.6 37 0 37 C0 24.79 0 12.58 0 0 Z " fill="#3FE3E3" transform="translate(14,254)"/>
<path d="M0 0 C4.32439848 -0.09206289 8.64537132 -0.17161666 12.9699707 -0.21972656 C14.43948921 -0.23978825 15.90892841 -0.26704478 17.37817383 -0.30175781 C19.49580487 -0.35052141 21.61237687 -0.37302161 23.73046875 -0.390625 C25.00301514 -0.41157227 26.27556152 -0.43251953 27.58666992 -0.45410156 C31.58031613 0.07720392 33.16453438 1.20324714 36 4 C38.45038229 7.67193785 38.19342413 10.56586207 37.61328125 14.80859375 C36.65775922 18.22291133 34.76434517 19.89383225 32 22 C28.58248347 23.13917218 25.96512063 23.11338481 22.36328125 23.09765625 C21.06455078 23.09443359 19.76582031 23.09121094 18.42773438 23.08789062 C17.05598892 23.07953531 15.68424413 23.07107037 14.3125 23.0625 C12.92903805 23.05748335 11.54557437 23.05292073 10.16210938 23.04882812 C6.77472104 23.03702538 3.3873551 23.01908967 0 23 C0 15.41 0 7.82 0 0 Z " fill="#000101" transform="translate(120,193)"/>
</svg>
